<svg width="69" height="70" viewBox="0 0 69 70" fill="none" xmlns="http://www.w3.org/2000/svg">
<path fill-rule="evenodd" clip-rule="evenodd" d="M42.6563 69.9942C66.6396 69.2903 69 64.1618 69 35.0468C69 2.92056 66.125 0 34.5 0C2.875 0 0 2.92056 0 35.0468C0 64.2377 2.37475 69.3166 26.5304 70C26.7403 69.7342 26.8179 69.4013 26.8179 69.0625C26.8179 68.3324 26.7892 60.8382 26.7748 58.2594C18.0435 60.1256 16.2006 54.1151 16.2006 54.1151C14.7718 50.5462 12.7133 49.5941 12.7133 49.5941C9.86413 47.6782 12.9289 47.7161 12.9289 47.7161C16.0799 47.9352 17.7388 50.9025 17.7388 50.9025C20.539 55.625 25.0873 54.2611 26.8754 53.4696C27.1601 51.4749 27.9708 50.111 28.8678 49.34C21.896 48.5602 14.5676 45.9083 14.5676 34.0655C14.5676 30.6922 15.7924 27.9352 17.7991 25.7739C17.4743 24.9912 16.399 21.8487 18.1068 17.5964C18.1068 17.5964 20.7431 16.764 26.7403 20.7623C29.2444 20.0759 31.9297 19.7342 34.6006 19.7225C37.2657 19.7342 39.951 20.0759 42.4608 20.7623C48.4552 16.764 51.0858 17.5964 51.0858 17.5964C52.7994 21.8487 51.7212 24.9912 51.3963 25.7739C53.4088 27.9352 54.625 30.6922 54.625 34.0655C54.625 45.9375 47.2851 48.5514 40.2902 49.3137C41.4172 50.2687 42.4206 52.1554 42.4206 55.038C42.4206 57.8008 42.4033 62.6869 42.3918 65.9258C42.3861 67.5292 42.3832 68.7266 42.3832 69.0625C42.3832 69.3808 42.4666 69.7167 42.6563 69.9942Z" fill="#1C1C1C"/>
</svg>
