<svg width="115" height="115" viewBox="0 0 115 115" fill="none" xmlns="http://www.w3.org/2000/svg">
<path d="M93.8688 27.4562C93.8688 28.3302 93.6963 29.1958 93.3621 30.0032C93.0278 30.8107 92.5369 31.5444 91.9195 32.1625C91.3014 32.7805 90.5676 33.2707 89.7597 33.6052C88.9525 33.9397 88.0872 34.1119 87.2132 34.1119C86.3392 34.1119 85.4738 33.9397 84.6659 33.6052C83.8588 33.2707 83.1249 32.7805 82.5068 32.1625C81.8887 31.5444 81.3985 30.8107 81.0643 30.0032C80.7293 29.1958 80.5576 28.3302 80.5576 27.4562C80.5576 25.6911 81.2583 23.9982 82.5068 22.75C83.7553 21.5018 85.4479 20.8006 87.2132 20.8006C88.9784 20.8006 90.6711 21.5018 91.9195 22.75C93.1673 23.9982 93.8688 25.6911 93.8688 27.4562ZM115 57.5V57.5862L114.619 81.7075C114.522 90.4066 111.023 98.7225 104.872 104.874C98.7218 111.027 90.4066 114.527 81.7076 114.626L57.4999 115H57.4137L33.2925 114.619C24.5932 114.522 16.2776 111.023 10.1253 104.873C3.97299 98.7218 0.472757 90.4066 0.373749 81.7075L0 57.5V57.4137L0.380937 33.2925C0.47804 24.5932 3.97643 16.2776 10.1274 10.1253C16.2784 3.97297 24.5932 0.472736 33.2925 0.373764L57.4999 0H57.5862L81.7076 0.380952C90.4066 0.478055 98.7225 3.97642 104.874 10.1274C111.027 16.2784 114.527 24.5932 114.626 33.2925L115 57.5ZM104.291 57.5L103.917 33.4578C103.849 27.5445 101.47 21.8924 97.2893 17.7108C93.1076 13.5293 87.4554 11.1503 81.5422 11.0831L57.4999 10.7094L33.4578 11.0831C27.5445 11.1503 21.8924 13.5293 17.7108 17.7108C13.5293 21.8924 11.1503 27.5445 11.0831 33.4578L10.7094 57.5L11.0831 81.5422C11.1503 87.4554 13.5293 93.1076 17.7108 97.2893C21.8924 101.471 27.5445 103.849 33.4578 103.917L57.4999 104.291L81.5422 103.917C87.4554 103.849 93.1076 101.471 97.2893 97.2893C101.47 93.1076 103.849 87.4554 103.917 81.5422L104.291 57.5ZM87.0263 57.5C87.0263 65.3308 83.9155 72.841 78.3783 78.3783C72.8411 83.9155 65.3308 87.0263 57.4999 87.0263C49.6691 87.0263 42.159 83.9155 36.6217 78.3783C31.0845 72.841 27.9737 65.3308 27.9737 57.5C27.9737 49.6691 31.0845 42.159 36.6217 36.6217C42.159 31.0845 49.6691 27.9737 57.4999 27.9737C65.3308 27.9737 72.8411 31.0845 78.3783 36.6217C83.9155 42.159 87.0263 49.6691 87.0263 57.5ZM76.3169 57.5C76.3169 52.5094 74.3346 47.7233 70.8056 44.1944C67.2766 40.6656 62.4904 38.6831 57.4999 38.6831C52.5094 38.6831 47.7232 40.6656 44.1944 44.1944C40.6656 47.7233 38.6831 52.5094 38.6831 57.5C38.6831 62.4905 40.6656 67.2765 44.1944 70.8055C47.7232 74.3346 52.5094 76.3169 57.4999 76.3169C62.4904 76.3169 67.2766 74.3346 70.8056 70.8055C74.3346 67.2765 76.3169 62.4905 76.3169 57.5Z" fill="#1C1C1C"/>
</svg>
