<svg width="109" height="108" viewBox="0 0 109 108" fill="none" xmlns="http://www.w3.org/2000/svg">
<path d="M109 105.61V65.6775C109 44.28 97.4733 34.3237 82.1042 34.3237C69.7021 34.3237 64.1431 41.0839 61.0468 45.8291V35.9606H37.6799C37.9899 42.498 37.6799 105.61 37.6799 105.61H61.0468V66.7136C61.0468 64.638 61.1967 62.5556 61.8166 61.0706C63.5027 56.9092 67.3484 52.6027 73.7998 52.6027C82.2575 52.6027 85.6365 58.9882 85.6365 68.3505V105.614H109V105.61ZM13.063 26.4532C21.2073 26.4532 26.286 21.1005 26.286 14.4146C26.1362 7.58361 21.2107 2.38611 13.2197 2.38611C5.22859 2.38611 0 7.58023 0 14.4146C0 21.1005 5.07191 26.4532 12.9165 26.4532H13.063ZM24.7464 105.61V35.9606H1.38294V105.61H24.7464Z" fill="#1C1C1C"/>
</svg>
